<svg width="88" height="28" viewBox="0 0 88 28" fill="none" xmlns="http://www.w3.org/2000/svg">
<path d="M85 0H3C1.34315 0 0 1.34315 0 3V25C0 26.6569 1.34315 28 3 28H85C86.6569 28 88 26.6569 88 25V3C88 1.34315 86.6569 0 85 0Z" fill="#EC6661"/>
<path d="M12.762 14.086H17.424V15.528H16.346C16.234 16.0787 16.047 16.5827 15.786 17.04C15.534 17.488 15.207 17.8753 14.806 18.202C14.414 18.5287 13.947 18.7853 13.406 18.972C12.865 19.1493 12.253 19.238 11.572 19.238C10.769 19.238 10.055 19.098 9.42999 18.818C8.80499 18.5287 8.27702 18.146 7.84802 17.67C7.41902 17.194 7.09198 16.648 6.86798 16.032C6.64398 15.4067 6.53198 14.7627 6.53198 14.1C6.53198 13.4373 6.64902 12.798 6.88202 12.182C7.11502 11.5567 7.45101 11.006 7.89001 10.53C8.32901 10.054 8.85598 9.67602 9.47198 9.39602C10.097 9.10672 10.797 8.96202 11.572 8.96202C12.151 8.96202 12.683 9.04602 13.168 9.21402C13.663 9.38202 14.092 9.61072 14.456 9.90002C14.829 10.1893 15.128 10.53 15.352 10.922C15.576 11.3047 15.707 11.7107 15.744 12.14H14.12C14.073 11.8973 13.98 11.6733 13.84 11.468C13.7 11.2533 13.518 11.0667 13.294 10.908C13.07 10.7493 12.809 10.628 12.51 10.544C12.221 10.4507 11.908 10.404 11.572 10.404C11.049 10.404 10.578 10.5067 10.158 10.712C9.73802 10.9173 9.37902 11.1927 9.08002 11.538C8.79102 11.874 8.56702 12.266 8.40802 12.714C8.25902 13.162 8.18402 13.624 8.18402 14.1C8.18402 14.576 8.25902 15.038 8.40802 15.486C8.55702 15.934 8.78102 16.3307 9.08002 16.676C9.37902 17.012 9.75201 17.2827 10.2 17.488C10.648 17.6933 11.175 17.796 11.782 17.796C12.202 17.796 12.575 17.7353 12.902 17.614C13.238 17.4927 13.523 17.3293 13.756 17.124C13.999 16.9093 14.195 16.6667 14.344 16.396C14.493 16.116 14.591 15.8267 14.638 15.528H12.762V14.086ZM21.468 13.456C20.992 13.456 20.596 13.5913 20.278 13.862C19.961 14.1327 19.802 14.534 19.802 15.066H23.05C23.05 14.562 22.901 14.17 22.602 13.89C22.313 13.6007 21.935 13.456 21.468 13.456ZM19.802 16.2C19.821 16.4333 19.863 16.6527 19.928 16.858C19.994 17.0633 20.092 17.2453 20.222 17.404C20.362 17.5533 20.54 17.6747 20.754 17.768C20.969 17.852 21.235 17.894 21.552 17.894C21.991 17.894 22.308 17.81 22.504 17.642C22.7 17.474 22.845 17.2733 22.938 17.04H24.478C24.432 17.32 24.329 17.5907 24.17 17.852C24.021 18.104 23.82 18.328 23.568 18.524C23.316 18.72 23.022 18.8787 22.686 19C22.35 19.112 21.972 19.168 21.552 19.168C21.002 19.168 20.521 19.0793 20.11 18.902C19.709 18.7247 19.373 18.482 19.102 18.174C18.832 17.866 18.626 17.502 18.486 17.082C18.356 16.662 18.29 16.214 18.29 15.738C18.29 15.2527 18.36 14.8 18.5 14.38C18.65 13.96 18.86 13.596 19.13 13.288C19.401 12.98 19.737 12.742 20.138 12.574C20.54 12.3967 20.997 12.308 21.51 12.308C21.93 12.308 22.322 12.3827 22.686 12.532C23.06 12.6813 23.382 12.8913 23.652 13.162C23.932 13.4233 24.147 13.7313 24.296 14.086C24.455 14.4407 24.534 14.828 24.534 15.248C24.534 15.36 24.53 15.4953 24.52 15.654C24.52 15.8033 24.502 15.9853 24.464 16.2H19.802ZM29.802 19C29.681 19.0187 29.517 19.0373 29.312 19.056C29.107 19.0747 28.892 19.084 28.668 19.084C28.481 19.084 28.267 19.0653 28.024 19.028C27.781 19 27.548 18.9113 27.324 18.762C27.109 18.6127 26.927 18.384 26.778 18.076C26.629 17.768 26.554 17.3387 26.554 16.788V13.75H25.448V12.476H26.554V10.502H28.08V12.476H29.578V13.75H28.08V16.438C28.08 16.718 28.099 16.942 28.136 17.11C28.183 17.278 28.248 17.4087 28.332 17.502C28.416 17.586 28.514 17.642 28.626 17.67C28.747 17.698 28.883 17.712 29.032 17.712C29.153 17.712 29.293 17.7073 29.452 17.698C29.611 17.6887 29.727 17.6747 29.802 17.656V19ZM38.672 9.01802C39.036 9.07402 39.372 9.19072 39.68 9.36802C39.998 9.53602 40.268 9.75072 40.492 10.012C40.716 10.2733 40.889 10.5767 41.01 10.922C41.141 11.258 41.206 11.6267 41.206 12.028H39.596C39.596 11.5427 39.466 11.1507 39.204 10.852C38.943 10.5533 38.584 10.404 38.126 10.404C37.725 10.404 37.38 10.5067 37.09 10.712C36.801 10.9173 36.656 11.23 36.656 11.65C36.656 11.846 36.694 12.0233 36.768 12.182C36.852 12.3313 36.96 12.462 37.09 12.574C37.23 12.686 37.384 12.784 37.552 12.868C37.72 12.952 37.898 13.0267 38.084 13.092C38.467 13.232 38.854 13.3813 39.246 13.54C39.648 13.6987 40.012 13.8947 40.338 14.128C40.665 14.3613 40.931 14.6413 41.136 14.968C41.342 15.2947 41.444 15.6913 41.444 16.158C41.444 16.606 41.37 17.0073 41.22 17.362C41.08 17.7167 40.884 18.02 40.632 18.272C40.39 18.524 40.1 18.7293 39.764 18.888C39.428 19.0373 39.064 19.14 38.672 19.196V20.68H37.524V19.196C37.142 19.14 36.778 19.0233 36.432 18.846C36.096 18.6687 35.798 18.44 35.536 18.16C35.284 17.8707 35.084 17.53 34.934 17.138C34.785 16.7367 34.71 16.2887 34.71 15.794H36.32C36.32 16.438 36.498 16.9327 36.852 17.278C37.207 17.6233 37.664 17.796 38.224 17.796C38.448 17.796 38.658 17.7633 38.854 17.698C39.05 17.6233 39.218 17.5253 39.358 17.404C39.508 17.2733 39.624 17.1193 39.708 16.942C39.792 16.7647 39.834 16.564 39.834 16.34C39.834 16.088 39.783 15.878 39.68 15.71C39.587 15.542 39.461 15.402 39.302 15.29C39.153 15.1687 38.985 15.0707 38.798 14.996C38.621 14.912 38.448 14.842 38.28 14.786C37.832 14.6273 37.412 14.4687 37.02 14.31C36.628 14.142 36.283 13.946 35.984 13.722C35.695 13.4887 35.466 13.2087 35.298 12.882C35.13 12.5553 35.046 12.1447 35.046 11.65C35.046 11.2953 35.107 10.9687 35.228 10.67C35.359 10.362 35.536 10.096 35.76 9.87202C35.984 9.63872 36.246 9.45202 36.544 9.31202C36.852 9.16272 37.179 9.06002 37.524 9.00402V7.52002H38.672V9.01802ZM42.205 19C42.205 18.2253 42.27 17.5767 42.401 17.054C42.532 16.5313 42.714 16.088 42.947 15.724C43.18 15.36 43.456 15.052 43.773 14.8C44.1 14.548 44.45 14.3007 44.823 14.058C45.038 13.9273 45.257 13.792 45.481 13.652C45.714 13.512 45.924 13.358 46.111 13.19C46.298 13.0127 46.452 12.8167 46.573 12.602C46.694 12.378 46.755 12.1167 46.755 11.818C46.755 11.342 46.62 11.0013 46.349 10.796C46.078 10.5813 45.742 10.474 45.341 10.474C44.921 10.474 44.562 10.6047 44.263 10.866C43.964 11.118 43.815 11.5287 43.815 12.098H42.205C42.205 11.6033 42.289 11.1647 42.457 10.782C42.634 10.3993 42.868 10.082 43.157 9.83002C43.456 9.56872 43.792 9.37272 44.165 9.24202C44.548 9.10202 44.944 9.03202 45.355 9.03202C45.775 9.03202 46.167 9.09272 46.531 9.21402C46.904 9.33532 47.226 9.52202 47.497 9.77402C47.768 10.0167 47.978 10.3247 48.127 10.698C48.286 11.062 48.365 11.4867 48.365 11.972C48.365 12.42 48.258 12.8213 48.043 13.176C47.828 13.5307 47.576 13.8433 47.287 14.114C46.998 14.3753 46.704 14.5993 46.405 14.786C46.116 14.9727 45.892 15.122 45.733 15.234C45.378 15.486 45.089 15.7053 44.865 15.892C44.65 16.0787 44.482 16.256 44.361 16.424C44.24 16.592 44.156 16.7647 44.109 16.942C44.072 17.1193 44.053 17.3247 44.053 17.558H48.309V19H42.205ZM49.546 12.462C49.546 12.0047 49.625 11.5707 49.784 11.16C49.952 10.74 50.185 10.3713 50.484 10.054C50.782 9.73672 51.142 9.48932 51.562 9.31202C51.982 9.12532 52.453 9.03202 52.976 9.03202C53.498 9.03202 53.97 9.12532 54.39 9.31202C54.819 9.48932 55.183 9.73672 55.482 10.054C55.79 10.3713 56.023 10.74 56.182 11.16C56.35 11.5707 56.434 12.0047 56.434 12.462V15.738C56.434 16.2047 56.35 16.6433 56.182 17.054C56.023 17.4647 55.79 17.8287 55.482 18.146C55.183 18.4633 54.819 18.7153 54.39 18.902C53.97 19.0793 53.498 19.168 52.976 19.168C52.453 19.168 51.982 19.0793 51.562 18.902C51.142 18.7153 50.782 18.4633 50.484 18.146C50.185 17.8287 49.952 17.4647 49.784 17.054C49.625 16.6433 49.546 16.2047 49.546 15.738V12.462ZM54.824 12.462C54.824 12.1913 54.777 11.9393 54.684 11.706C54.6 11.4633 54.478 11.2533 54.32 11.076C54.161 10.8893 53.965 10.7447 53.732 10.642C53.508 10.53 53.256 10.474 52.976 10.474C52.696 10.474 52.444 10.53 52.22 10.642C51.996 10.7447 51.804 10.8893 51.646 11.076C51.487 11.2533 51.366 11.4633 51.282 11.706C51.198 11.9393 51.156 12.1913 51.156 12.462V15.738C51.156 16.0087 51.198 16.2653 51.282 16.508C51.366 16.7413 51.487 16.9513 51.646 17.138C51.804 17.3153 51.996 17.46 52.22 17.572C52.444 17.6747 52.696 17.726 52.976 17.726C53.256 17.726 53.508 17.6747 53.732 17.572C53.965 17.46 54.161 17.3153 54.32 17.138C54.478 16.9513 54.6 16.7413 54.684 16.508C54.777 16.2653 54.824 16.0087 54.824 15.738V12.462ZM66.151 19.238C65.367 19.238 64.657 19.098 64.023 18.818C63.397 18.5287 62.865 18.146 62.427 17.67C61.997 17.194 61.666 16.648 61.433 16.032C61.199 15.4067 61.083 14.7627 61.083 14.1C61.083 13.4373 61.199 12.798 61.433 12.182C61.666 11.5567 61.997 11.006 62.427 10.53C62.865 10.054 63.397 9.67602 64.023 9.39602C64.657 9.10672 65.367 8.96202 66.151 8.96202C66.935 8.96202 67.639 9.10672 68.265 9.39602C68.899 9.67602 69.431 10.054 69.861 10.53C70.299 11.006 70.635 11.5567 70.869 12.182C71.102 12.798 71.219 13.4373 71.219 14.1C71.219 14.7627 71.102 15.4067 70.869 16.032C70.635 16.648 70.299 17.194 69.861 17.67C69.431 18.146 68.899 18.5287 68.265 18.818C67.639 19.098 66.935 19.238 66.151 19.238ZM66.151 17.796C66.673 17.796 67.14 17.6933 67.551 17.488C67.971 17.2827 68.325 17.0073 68.615 16.662C68.913 16.3167 69.137 15.9247 69.287 15.486C69.445 15.038 69.525 14.576 69.525 14.1C69.525 13.624 69.445 13.1667 69.287 12.728C69.137 12.28 68.913 11.8833 68.615 11.538C68.325 11.1927 67.971 10.9173 67.551 10.712C67.14 10.5067 66.673 10.404 66.151 10.404C65.628 10.404 65.157 10.5067 64.737 10.712C64.326 10.9173 63.971 11.1927 63.673 11.538C63.383 11.8833 63.159 12.28 63.001 12.728C62.851 13.1667 62.777 13.624 62.777 14.1C62.777 14.576 62.851 15.038 63.001 15.486C63.159 15.9247 63.383 16.3167 63.673 16.662C63.971 17.0073 64.326 17.2827 64.737 17.488C65.157 17.6933 65.628 17.796 66.151 17.796ZM76.592 10.572C76.489 10.544 76.382 10.5207 76.27 10.502C76.158 10.4833 76.041 10.474 75.92 10.474C75.799 10.474 75.677 10.4787 75.556 10.488C75.435 10.4973 75.323 10.5347 75.22 10.6C75.127 10.6653 75.047 10.768 74.982 10.908C74.917 11.048 74.884 11.244 74.884 11.496V12.476H76.592V13.75H74.884V19H73.358V13.75H72.028V12.476H73.358V11.664C73.358 11.0387 73.442 10.558 73.61 10.222C73.787 9.87672 73.997 9.62472 74.24 9.46602C74.492 9.29802 74.753 9.20002 75.024 9.17202C75.295 9.13472 75.523 9.11602 75.71 9.11602C75.906 9.11602 76.079 9.13472 76.228 9.17202C76.387 9.20002 76.508 9.23732 76.592 9.28402V10.572ZM81.618 10.572C81.515 10.544 81.408 10.5207 81.296 10.502C81.184 10.4833 81.067 10.474 80.946 10.474C80.825 10.474 80.703 10.4787 80.582 10.488C80.461 10.4973 80.349 10.5347 80.246 10.6C80.153 10.6653 80.073 10.768 80.008 10.908C79.943 11.048 79.91 11.244 79.91 11.496V12.476H81.618V13.75H79.91V19H78.384V13.75H77.054V12.476H78.384V11.664C78.384 11.0387 78.468 10.558 78.636 10.222C78.813 9.87672 79.023 9.62472 79.266 9.46602C79.518 9.29802 79.779 9.20002 80.05 9.17202C80.321 9.13472 80.549 9.11602 80.736 9.11602C80.932 9.11602 81.105 9.13472 81.254 9.17202C81.413 9.20002 81.534 9.23732 81.618 9.28402V10.572Z" fill="white"/>
</svg>
