<svg width="23" height="20" viewBox="0 0 23 20" fill="none" xmlns="http://www.w3.org/2000/svg">
<path d="M2.21719 1V0C1.76519 0 1.37016 0.3027 1.25216 0.7387L2.21719 1ZM20.2172 1L21.1822 0.7387C21.0642 0.3027 20.6692 0 20.2172 0V1ZM16.7172 6.5417L17.2722 5.7096C16.9092 5.4681 16.4322 5.4888 16.0922 5.7608L16.7172 6.5417ZM11.2172 6.5417L11.7722 5.7096C11.4092 5.4681 10.9322 5.4888 10.5922 5.7608L11.2172 6.5417ZM5.71719 6.5417L6.27218 5.7096C5.87518 5.4452 5.34722 5.4975 5.01022 5.8346L5.71719 6.5417ZM1.06521 5.2572L0.0992053 4.996L1.06521 5.2572ZM12.3922 7.3249L12.9462 6.4928L12.3922 7.3249ZM21.4802 5.6677L22.4462 5.4064L21.4802 5.6677ZM2.21719 2H20.2172V0H2.21719V2ZM19.2522 1.2612L20.5152 5.9289L22.4462 5.4064L21.1822 0.7387L19.2522 1.2612ZM18.6722 6.643L17.2722 5.7096L16.1622 7.3738L17.5622 8.3071L18.6722 6.643ZM16.0922 5.7608L15.3052 6.3905L16.5552 7.9522L17.3422 7.3226L16.0922 5.7608ZM12.9462 6.4928L11.7722 5.7096L10.6622 7.3738L11.8372 8.1569L12.9462 6.4928ZM10.5922 5.7608L9.8052 6.3905L11.0552 7.9522L11.8422 7.3226L10.5922 5.7608ZM7.44619 6.4928L6.27218 5.7096L5.16219 7.3738L6.33718 8.1569L7.44619 6.4928ZM5.01022 5.8346L4.61819 6.226L6.03317 7.6402L6.42416 7.2488L5.01022 5.8346ZM2.03017 5.5185L3.18221 1.2612L1.25216 0.7387L0.0992053 4.996L2.03017 5.5185ZM2.37917 6.4478C2.07517 6.2452 1.93517 5.8711 2.03017 5.5185L0.0992053 4.996C-0.220795 6.1781 0.250188 7.4325 1.26919 8.1119L2.37917 6.4478ZM4.61819 6.226C4.02019 6.8243 3.08317 6.9171 2.37917 6.4478L1.26919 8.1119C2.76719 9.11 4.76017 8.9126 6.03317 7.6402L4.61819 6.226ZM15.3052 6.3905C14.6252 6.9345 13.6712 6.9759 12.9462 6.4928L11.8372 8.1569C13.2862 9.1232 15.1942 9.0404 16.5552 7.9522L15.3052 6.3905ZM20.3702 6.4749C19.9162 6.9284 19.2052 6.9988 18.6722 6.643L17.5622 8.3071C18.8892 9.1917 20.6562 9.0168 21.7842 7.8891L20.3702 6.4749ZM9.8052 6.3905C9.1252 6.9345 8.17119 6.9759 7.44619 6.4928L6.33718 8.1569C7.78618 9.1232 9.6942 9.0404 11.0552 7.9522L9.8052 6.3905ZM20.5152 5.9289C20.5682 6.1238 20.5122 6.3321 20.3702 6.4749L21.7842 7.8891C22.4332 7.2398 22.6862 6.2928 22.4462 5.4064L20.5152 5.9289Z" fill="#333333"/>
<path d="M20.2172 19V20C20.7692 20 21.2172 19.5522 21.2172 19H20.2172ZM2.21716 19H1.21716C1.21716 19.5522 1.66516 20 2.21716 20V19ZM19.2172 7.5V19H21.2172V7.5H19.2172ZM20.2172 18H2.21716V20H20.2172V18ZM3.21716 19V7.5H1.21716V19H3.21716Z" fill="#333333"/>
<path d="M8.71716 11V10C8.16516 10 7.71716 10.4477 7.71716 11H8.71716ZM13.7172 11H14.7172C14.7172 10.4477 14.2692 10 13.7172 10V11ZM9.71716 19V11H7.71716V19H9.71716ZM8.71716 12H13.7172V10H8.71716V12ZM12.7172 11V19H14.7172V11H12.7172Z" fill="#333333"/>
</svg>
